<?xml version="1.0" encoding="utf-8"?>
<!-- Generator: Adobe Illustrator 23.0.5, SVG Export Plug-In . SVG Version: 6.00 Build 0)  -->
<svg version="1.1" id="Layer_1" xmlns="http://www.w3.org/2000/svg" xmlns:xlink="http://www.w3.org/1999/xlink" x="0px" y="0px"
	 viewBox="0 0 349.65 357.17" style="enable-background:new 0 0 349.65 357.17;" xml:space="preserve">
<style type="text/css">
	.st0{clip-path:url(#SVGID_2_);}
	.st1{clip-path:url(#SVGID_4_);}
	.st2{clip-path:url(#SVGID_6_);}
	.st3{clip-path:url(#SVGID_8_);fill:url(#SVGID_9_);}
	.st4{clip-path:url(#SVGID_11_);fill:url(#SVGID_12_);}
	.st5{clip-path:url(#SVGID_14_);fill:url(#SVGID_15_);}
	.st6{clip-path:url(#SVGID_17_);fill:url(#SVGID_18_);}
	.st7{clip-path:url(#SVGID_20_);fill:url(#SVGID_21_);}
	.st8{clip-path:url(#SVGID_23_);}
	.st9{clip-path:url(#SVGID_25_);}
	.st10{clip-path:url(#SVGID_27_);fill:url(#SVGID_28_);}
	.st11{clip-path:url(#SVGID_30_);fill:url(#SVGID_31_);}
	.st12{clip-path:url(#SVGID_33_);fill:url(#SVGID_34_);}
	.st13{clip-path:url(#SVGID_36_);}
	.st14{clip-path:url(#SVGID_38_);}
	.st15{clip-path:url(#SVGID_40_);fill:url(#SVGID_41_);}
	.st16{clip-path:url(#SVGID_43_);fill:url(#SVGID_44_);}
	.st17{clip-path:url(#SVGID_46_);fill:url(#SVGID_47_);}
	.st18{clip-path:url(#SVGID_49_);fill:url(#SVGID_50_);}
	.st19{clip-path:url(#SVGID_52_);}
	.st20{clip-path:url(#SVGID_54_);}
	.st21{clip-path:url(#SVGID_56_);fill:url(#SVGID_57_);}
	.st22{clip-path:url(#SVGID_59_);fill:url(#SVGID_60_);}
	.st23{clip-path:url(#SVGID_62_);fill:url(#SVGID_63_);}
	.st24{clip-path:url(#SVGID_65_);fill:url(#SVGID_66_);}
	.st25{filter:url(#Adobe_OpacityMaskFilter);}
	.st26{enable-background:new    ;}
	.st27{clip-path:url(#SVGID_68_);}
	.st28{filter:url(#Adobe_OpacityMaskFilter_1_);}
	.st29{clip-path:url(#SVGID_71_);mask:url(#SVGID_69_);fill:url(#SVGID_72_);}
	.st30{opacity:0.2;clip-path:url(#SVGID_68_);}
	.st31{clip-path:url(#SVGID_74_);}
	.st32{clip-path:url(#SVGID_76_);fill:url(#SVGID_77_);}
	.st33{filter:url(#Adobe_OpacityMaskFilter_2_);}
	.st34{filter:url(#Adobe_OpacityMaskFilter_3_);}
	.st35{clip-path:url(#SVGID_80_);mask:url(#SVGID_78_);fill:url(#SVGID_81_);}
	.st36{clip-path:url(#SVGID_83_);}
	.st37{clip-path:url(#SVGID_85_);fill:url(#SVGID_86_);}
	.st38{filter:url(#Adobe_OpacityMaskFilter_4_);}
	.st39{filter:url(#Adobe_OpacityMaskFilter_5_);}
	.st40{clip-path:url(#SVGID_89_);mask:url(#SVGID_87_);fill:url(#SVGID_90_);}
	.st41{clip-path:url(#SVGID_92_);}
	.st42{clip-path:url(#SVGID_94_);fill:url(#SVGID_95_);}
	.st43{filter:url(#Adobe_OpacityMaskFilter_6_);}
	.st44{filter:url(#Adobe_OpacityMaskFilter_7_);}
	.st45{clip-path:url(#SVGID_98_);mask:url(#SVGID_96_);fill:url(#SVGID_99_);}
	.st46{clip-path:url(#SVGID_101_);}
	.st47{clip-path:url(#SVGID_103_);fill:url(#SVGID_104_);}
	.st48{clip-path:url(#SVGID_68_);fill:#F5F5F5;}
	.st49{clip-path:url(#SVGID_106_);fill:url(#SVGID_107_);}
	.st50{clip-path:url(#SVGID_109_);fill:#FFFFFF;}
	.st51{opacity:0.63;clip-path:url(#SVGID_109_);}
	.st52{clip-path:url(#SVGID_111_);}
	.st53{clip-path:url(#SVGID_113_);fill:url(#SVGID_114_);}
	.st54{opacity:0.67;clip-path:url(#SVGID_109_);}
	.st55{clip-path:url(#SVGID_116_);}
	.st56{clip-path:url(#SVGID_118_);fill:url(#SVGID_119_);}
	.st57{clip-path:url(#SVGID_121_);fill:url(#SVGID_122_);}
</style>
<g>
	<defs>
		<rect id="SVGID_1_" x="-125.18" y="-21.41" width="600" height="400"/>
	</defs>
	<clipPath id="SVGID_2_">
		<use xlink:href="#SVGID_1_"  style="overflow:visible;"/>
	</clipPath>
	<g class="st0">
		<defs>
			<rect id="SVGID_3_" x="-125.18" y="-21.41" width="600" height="400"/>
		</defs>
		<clipPath id="SVGID_4_">
			<use xlink:href="#SVGID_3_"  style="overflow:visible;"/>
		</clipPath>
		<g class="st1">
			<g>
				<defs>
					<rect id="SVGID_5_" x="246.42" y="136.35" width="24.01" height="33.8"/>
				</defs>
				<clipPath id="SVGID_6_">
					<use xlink:href="#SVGID_5_"  style="overflow:visible;"/>
				</clipPath>
				<g class="st2">
					<defs>
						<path id="SVGID_7_" d="M248.65,136.35c0,0,10.01,8.08,5.09,20.09c-4.92,12.01-7.32,13.71-7.32,13.71
							c19.72-2.61,24.01-19.25,24.01-19.25L248.65,136.35z"/>
					</defs>
					<clipPath id="SVGID_8_">
						<use xlink:href="#SVGID_7_"  style="overflow:visible;"/>
					</clipPath>
					
						<linearGradient id="SVGID_9_" gradientUnits="userSpaceOnUse" x1="-125.1751" y1="378.4941" x2="-124.1751" y2="378.4941" gradientTransform="matrix(27.1635 -6.9993 -6.9993 -27.1635 6292.4868 9562.2939)">
						<stop  offset="0" style="stop-color:#3FDC00"/>
						<stop  offset="0.1091" style="stop-color:#3FDC00"/>
						<stop  offset="1" style="stop-color:#AFFF2A"/>
					</linearGradient>
					<polygon class="st3" points="238.26,138.45 268.94,130.55 278.6,168.05 247.92,175.95 					"/>
				</g>
			</g>
		</g>
	</g>
	<g class="st0">
		<defs>
			<path id="SVGID_10_" d="M178.27,104.38c0,0,5.14-2.59,17.25-7.29c12.1-4.69,19.99,5.47,19.99,5.47l-14.96-21.51
				C200.55,81.06,184.98,82.57,178.27,104.38"/>
		</defs>
		<clipPath id="SVGID_11_">
			<use xlink:href="#SVGID_10_"  style="overflow:visible;"/>
		</clipPath>
		
			<linearGradient id="SVGID_12_" gradientUnits="userSpaceOnUse" x1="-125.1751" y1="378.6372" x2="-124.1751" y2="378.6372" gradientTransform="matrix(35.3559 -9.1103 -9.1103 -35.3559 8051.7891 12344.625)">
			<stop  offset="0" style="stop-color:#3FDC00"/>
			<stop  offset="0.1881" style="stop-color:#3FDC00"/>
			<stop  offset="0.2276" style="stop-color:#3DC800"/>
			<stop  offset="0.2989" style="stop-color:#3AAB00"/>
			<stop  offset="0.3785" style="stop-color:#379300"/>
			<stop  offset="0.4684" style="stop-color:#358100"/>
			<stop  offset="0.5746" style="stop-color:#347400"/>
			<stop  offset="0.7127" style="stop-color:#336C00"/>
			<stop  offset="1" style="stop-color:#336A00"/>
		</linearGradient>
		<polygon class="st4" points="172.64,82.51 213.19,72.06 221.14,102.93 180.59,113.37 		"/>
	</g>
	<g class="st0">
		<defs>
			<path id="SVGID_13_" d="M200.56,81.07c7.12,11.36-4.42,42.56-9.26,54.44c-1.19,2.92-2.17,6.16-2.22,6.86
				c-1.18,14.97,10.73,16.44,15.94,16.37c1.44-0.02,4.64-1.11,5.74-1.56c43.16-17.55,59.66-6.28,59.66-6.28
				c-1.68-13.75-7.71-25.06-14.95-35.21c-6.35,0.8-12.76-1.09-17.32-5.73c-4.43-4.52-6.22-10.73-5.47-16.89
				c-5.1-3.62-10.18-6.48-14.85-8.49c-7.25-3.12-12.84-3.59-15.53-3.59C201.18,80.99,200.56,81.07,200.56,81.07"/>
		</defs>
		<clipPath id="SVGID_14_">
			<use xlink:href="#SVGID_13_"  style="overflow:visible;"/>
		</clipPath>
		
			<linearGradient id="SVGID_15_" gradientUnits="userSpaceOnUse" x1="-125.1751" y1="378.5583" x2="-124.1751" y2="378.5583" gradientTransform="matrix(75.9027 -19.5581 -19.5581 -75.9027 17090.0078 26416.6914)">
			<stop  offset="0" style="stop-color:#3FDC00"/>
			<stop  offset="0.4455" style="stop-color:#3FDC00"/>
			<stop  offset="1" style="stop-color:#F0FF1F"/>
		</linearGradient>
		<polygon class="st5" points="169.1,85.83 265.29,61.04 289.24,153.96 193.04,178.75 		"/>
	</g>
	<g class="st0">
		<defs>
			<path id="SVGID_16_" d="M242.62,81.43c-7.44,7.3-8.08,18.76-1.42,25.55c6.66,6.79,18.13,6.37,25.57-0.93
				c7.44-7.3,8.08-18.77,1.42-25.55c-3.17-3.23-7.43-4.83-11.83-4.83C251.53,75.66,246.53,77.6,242.62,81.43"/>
		</defs>
		<clipPath id="SVGID_17_">
			<use xlink:href="#SVGID_16_"  style="overflow:visible;"/>
		</clipPath>
		
			<linearGradient id="SVGID_18_" gradientUnits="userSpaceOnUse" x1="-125.1751" y1="378.5608" x2="-124.1751" y2="378.5608" gradientTransform="matrix(35.8382 -9.2346 -9.2346 -35.8382 8218.9043 12510.2578)">
			<stop  offset="0" style="stop-color:#3FDC00"/>
			<stop  offset="0.1091" style="stop-color:#3FDC00"/>
			<stop  offset="1" style="stop-color:#DAE900"/>
		</linearGradient>
		<polygon class="st6" points="225.34,78.04 272.35,65.92 284.06,111.39 237.05,123.5 		"/>
	</g>
	<g class="st0">
		<defs>
			<path id="SVGID_19_" d="M200.48,275.3l14.98-21.49c0,0-7.9,10.16-19.99,5.45c-12.1-4.71-17.24-7.31-17.24-7.31
				C184.91,273.77,200.48,275.3,200.48,275.3"/>
		</defs>
		<clipPath id="SVGID_20_">
			<use xlink:href="#SVGID_19_"  style="overflow:visible;"/>
		</clipPath>
		
			<linearGradient id="SVGID_21_" gradientUnits="userSpaceOnUse" x1="-125.1751" y1="378.6872" x2="-124.1751" y2="378.6872" gradientTransform="matrix(7.5891 27.4092 -27.4092 7.5891 11521.9863 805.0397)">
			<stop  offset="0" style="stop-color:#ED1C24"/>
			<stop  offset="0.7581" style="stop-color:#F15F5B"/>
			<stop  offset="0.8428" style="stop-color:#EF4243"/>
			<stop  offset="0.9422" style="stop-color:#EE262D"/>
			<stop  offset="1" style="stop-color:#ED1C24"/>
		</linearGradient>
		<polygon class="st7" points="172.23,253.61 180.89,284.88 221.47,273.64 212.82,242.38 		"/>
	</g>
	<g class="st0">
		<defs>
			<rect id="SVGID_22_" x="-125.18" y="-21.41" width="600" height="400"/>
		</defs>
		<clipPath id="SVGID_23_">
			<use xlink:href="#SVGID_22_"  style="overflow:visible;"/>
		</clipPath>
		<g class="st8">
			<g>
				<defs>
					<rect id="SVGID_24_" x="246.47" y="186.27" width="23.98" height="33.8"/>
				</defs>
				<clipPath id="SVGID_25_">
					<use xlink:href="#SVGID_24_"  style="overflow:visible;"/>
				</clipPath>
				<g class="st9">
					<defs>
						<path id="SVGID_26_" d="M248.65,220.07c0,0,10.02-8.07,5.11-20.08c-4.91-12.02-7.3-13.72-7.3-13.72
							c19.72,2.64,23.98,19.28,23.98,19.28L248.65,220.07z"/>
					</defs>
					<clipPath id="SVGID_27_">
						<use xlink:href="#SVGID_26_"  style="overflow:visible;"/>
					</clipPath>
					
						<linearGradient id="SVGID_28_" gradientUnits="userSpaceOnUse" x1="-125.1751" y1="378.5406" x2="-124.1751" y2="378.5406" gradientTransform="matrix(8.848 31.9559 -31.9559 8.848 13457.4141 835.1337)">
						<stop  offset="0" style="stop-color:#ED1C24"/>
						<stop  offset="0.7581" style="stop-color:#F15F5B"/>
						<stop  offset="0.8428" style="stop-color:#EF4243"/>
						<stop  offset="0.9422" style="stop-color:#EE262D"/>
						<stop  offset="1" style="stop-color:#ED1C24"/>
					</linearGradient>
					<polygon class="st10" points="237.78,188.68 248.18,226.24 279.15,217.66 268.75,180.1 					"/>
				</g>
			</g>
		</g>
	</g>
	<g class="st0">
		<defs>
			<path id="SVGID_29_" d="M189.1,213.97c0.05,0.7,1.03,3.94,2.21,6.87c4.82,11.88,16.32,43.1,9.18,54.45c0,0,6.95,0.95,17.29-3.48
				c4.67-2,9.75-4.86,14.86-8.47c-0.74-6.16,1.05-12.37,5.49-16.89c4.57-4.64,10.97-6.52,17.33-5.71
				c7.25-10.14,13.3-21.44,14.99-35.19c0,0-16.52,11.25-59.65-6.36c-1.11-0.45-4.3-1.55-5.74-1.57c-0.11,0-0.23,0-0.35,0
				C199.33,197.62,187.96,199.33,189.1,213.97"/>
		</defs>
		<clipPath id="SVGID_30_">
			<use xlink:href="#SVGID_29_"  style="overflow:visible;"/>
		</clipPath>
		
			<linearGradient id="SVGID_31_" gradientUnits="userSpaceOnUse" x1="-125.1751" y1="378.6534" x2="-124.1751" y2="378.6534" gradientTransform="matrix(20.3582 73.5267 -73.5267 20.3582 30606.5879 1688.2874)">
			<stop  offset="0" style="stop-color:#ED1C24"/>
			<stop  offset="0.7581" style="stop-color:#F15F5B"/>
			<stop  offset="0.8428" style="stop-color:#EF4243"/>
			<stop  offset="0.9422" style="stop-color:#EE262D"/>
			<stop  offset="1" style="stop-color:#ED1C24"/>
		</linearGradient>
		<polygon class="st11" points="167.74,203.22 193.83,297.46 290.67,270.64 264.58,176.41 		"/>
	</g>
	<g class="st0">
		<defs>
			<path id="SVGID_32_" d="M241.17,249.43c-6.67,6.78-6.04,18.24,1.39,25.55c7.43,7.31,18.9,7.74,25.57,0.97
				c6.67-6.78,6.04-18.24-1.39-25.55c-3.9-3.84-8.92-5.78-13.76-5.78C248.59,244.62,244.34,246.21,241.17,249.43"/>
		</defs>
		<clipPath id="SVGID_33_">
			<use xlink:href="#SVGID_32_"  style="overflow:visible;"/>
		</clipPath>
		
			<linearGradient id="SVGID_34_" gradientUnits="userSpaceOnUse" x1="-125.1751" y1="378.5935" x2="-124.1751" y2="378.5935" gradientTransform="matrix(9.8755 35.6667 -35.6667 9.8755 14988.8125 970.7209)">
			<stop  offset="0" style="stop-color:#ED1C24"/>
			<stop  offset="0.7581" style="stop-color:#F15F5B"/>
			<stop  offset="0.8428" style="stop-color:#EF4243"/>
			<stop  offset="0.9422" style="stop-color:#EE262D"/>
			<stop  offset="1" style="stop-color:#ED1C24"/>
		</linearGradient>
		<polygon class="st12" points="224.7,247.33 237.37,293.09 284.6,280.02 271.93,234.26 		"/>
	</g>
	<g class="st0">
		<defs>
			<rect id="SVGID_35_" x="-125.18" y="-21.41" width="600" height="400"/>
		</defs>
		<clipPath id="SVGID_36_">
			<use xlink:href="#SVGID_35_"  style="overflow:visible;"/>
		</clipPath>
		<g class="st13">
			<g>
				<defs>
					<rect id="SVGID_37_" x="79.65" y="184.59" width="24.57" height="33.72"/>
				</defs>
				<clipPath id="SVGID_38_">
					<use xlink:href="#SVGID_37_"  style="overflow:visible;"/>
				</clipPath>
				<g class="st14">
					<defs>
						<path id="SVGID_39_" d="M100.98,218.3c0,0-9.77-8.37-4.49-20.23c5.28-11.86,7.72-13.48,7.72-13.48
							c-19.79,2.02-24.57,18.52-24.57,18.52L100.98,218.3z"/>
					</defs>
					<clipPath id="SVGID_40_">
						<use xlink:href="#SVGID_39_"  style="overflow:visible;"/>
					</clipPath>
					
						<linearGradient id="SVGID_41_" gradientUnits="userSpaceOnUse" x1="-125.1751" y1="378.6227" x2="-124.1751" y2="378.6227" gradientTransform="matrix(9.8407 -31.6632 -31.6632 -9.8407 13308.1807 -23.2678)">
						<stop  offset="0" style="stop-color:#0071A6"/>
						<stop  offset="0.0161" style="stop-color:#0071A6"/>
						<stop  offset="0.1927" style="stop-color:#1C84B3"/>
						<stop  offset="0.5731" style="stop-color:#65B3D6"/>
						<stop  offset="0.5753" style="stop-color:#65B3D6"/>
						<stop  offset="0.9946" style="stop-color:#65B3D6"/>
						<stop  offset="1" style="stop-color:#65B3D6"/>
					</linearGradient>
					<polygon class="st15" points="70.09,215.33 81.81,177.62 113.78,187.56 102.06,225.27 					"/>
				</g>
			</g>
		</g>
	</g>
	<g class="st0">
		<defs>
			<path id="SVGID_42_" d="M152.92,259.13c-12.24,4.33-19.82-6.07-19.82-6.07l14.3,21.95c0,0,15.61-1.04,22.97-22.64
				C170.37,252.37,165.15,254.81,152.92,259.13"/>
		</defs>
		<clipPath id="SVGID_43_">
			<use xlink:href="#SVGID_42_"  style="overflow:visible;"/>
		</clipPath>
		
			<linearGradient id="SVGID_44_" gradientUnits="userSpaceOnUse" x1="-125.1751" y1="378.4719" x2="-124.1751" y2="378.4719" gradientTransform="matrix(8.4411 -27.1599 -27.1599 -8.4411 11484.0273 70.2311)">
			<stop  offset="0" style="stop-color:#0071A6"/>
			<stop  offset="0.0161" style="stop-color:#0071A6"/>
			<stop  offset="0.1927" style="stop-color:#1C84B3"/>
			<stop  offset="0.5731" style="stop-color:#65B3D6"/>
			<stop  offset="0.5753" style="stop-color:#65B3D6"/>
			<stop  offset="0.9946" style="stop-color:#65B3D6"/>
			<stop  offset="1" style="stop-color:#65B3D6"/>
		</linearGradient>
		<polygon class="st16" points="126.68,273.02 136.38,241.8 176.79,254.36 167.09,285.58 		"/>
	</g>
	<g class="st0">
		<defs>
			<path id="SVGID_45_" d="M139.47,198.61c-43.66,16.25-59.82,4.49-59.82,4.49c1.26,13.8,6.96,25.28,13.89,35.64
				c6.37-0.61,12.72,1.47,17.14,6.25c4.3,4.65,5.9,10.91,4.96,17.05c4.99,3.77,9.99,6.78,14.59,8.93
				c10.19,4.75,17.17,4.02,17.17,4.02c-6.78-11.57,5.69-42.41,10.88-54.14c1.27-2.88,2.35-6.1,2.43-6.79
				c1.63-14.93-10.23-16.75-15.45-16.84c-0.02,0-0.04,0-0.06,0C143.73,197.23,140.57,198.2,139.47,198.61"/>
		</defs>
		<clipPath id="SVGID_46_">
			<use xlink:href="#SVGID_45_"  style="overflow:visible;"/>
		</clipPath>
		
			<linearGradient id="SVGID_47_" gradientUnits="userSpaceOnUse" x1="-125.1751" y1="378.503" x2="-124.1751" y2="378.503" gradientTransform="matrix(22.6429 -72.855 -72.855 -22.6429 30522.0605 -283.4744)">
			<stop  offset="0" style="stop-color:#0071A6"/>
			<stop  offset="0.0161" style="stop-color:#0071A6"/>
			<stop  offset="0.1927" style="stop-color:#1C84B3"/>
			<stop  offset="0.5731" style="stop-color:#65B3D6"/>
			<stop  offset="0.5753" style="stop-color:#65B3D6"/>
			<stop  offset="0.9946" style="stop-color:#65B3D6"/>
			<stop  offset="1" style="stop-color:#65B3D6"/>
		</linearGradient>
		<polygon class="st17" points="57.4,268.82 86.93,173.79 184.58,204.14 155.05,299.16 		"/>
	</g>
	<g class="st0">
		<defs>
			<path id="SVGID_48_" d="M81.96,248.05c-7.66,7.07-8.64,18.51-2.19,25.5c6.45,6.98,17.93,6.91,25.59-0.17
				c7.66-7.07,8.64-18.51,2.19-25.5c-3.2-3.46-7.63-5.19-12.22-5.19C90.66,242.7,85.82,244.49,81.96,248.05"/>
		</defs>
		<clipPath id="SVGID_49_">
			<use xlink:href="#SVGID_48_"  style="overflow:visible;"/>
		</clipPath>
		
			<linearGradient id="SVGID_50_" gradientUnits="userSpaceOnUse" x1="-125.1751" y1="378.5792" x2="-124.1751" y2="378.5792" gradientTransform="matrix(10.9838 -35.3411 -35.3411 -10.9838 14842.7383 12.882)">
			<stop  offset="0" style="stop-color:#0071A6"/>
			<stop  offset="0.0161" style="stop-color:#0071A6"/>
			<stop  offset="0.1927" style="stop-color:#1C84B3"/>
			<stop  offset="0.5731" style="stop-color:#65B3D6"/>
			<stop  offset="0.5753" style="stop-color:#65B3D6"/>
			<stop  offset="0.9946" style="stop-color:#65B3D6"/>
			<stop  offset="1" style="stop-color:#65B3D6"/>
		</linearGradient>
		<polygon class="st18" points="62.6,277.2 76.9,231.17 124.73,246.03 110.42,292.06 		"/>
	</g>
	<g class="st0">
		<defs>
			<rect id="SVGID_51_" x="-125.18" y="-21.41" width="600" height="400"/>
		</defs>
		<clipPath id="SVGID_52_">
			<use xlink:href="#SVGID_51_"  style="overflow:visible;"/>
		</clipPath>
		<g class="st19">
			<g>
				<defs>
					<rect id="SVGID_53_" x="136.11" y="81.03" width="33.8" height="23.99"/>
				</defs>
				<clipPath id="SVGID_54_">
					<use xlink:href="#SVGID_53_"  style="overflow:visible;"/>
				</clipPath>
				<g class="st20">
					<defs>
						<path id="SVGID_55_" d="M136.11,102.82c0,0,8.07-10.02,20.09-5.1c12.02,4.91,13.71,7.31,13.71,7.31
							c-2.63-19.72-19.26-23.99-19.26-23.99L136.11,102.82z"/>
					</defs>
					<clipPath id="SVGID_56_">
						<use xlink:href="#SVGID_55_"  style="overflow:visible;"/>
					</clipPath>
					
						<linearGradient id="SVGID_57_" gradientUnits="userSpaceOnUse" x1="-125.1751" y1="378.7632" x2="-124.1751" y2="378.7632" gradientTransform="matrix(20.5511 -20.1912 -20.1912 -20.5511 10359.6982 5362.8418)">
						<stop  offset="0" style="stop-color:#EEF720"/>
						<stop  offset="0.875" style="stop-color:#F1C92B"/>
						<stop  offset="1" style="stop-color:#F1C92B"/>
					</linearGradient>
					<polygon class="st21" points="124.12,92.82 153.31,64.14 181.91,93.24 152.71,121.92 					"/>
				</g>
			</g>
		</g>
	</g>
	<g class="st0">
		<defs>
			<path id="SVGID_58_" d="M80.85,150.97c0,0,1.52,15.57,23.34,22.26c0,0-2.6-5.14-7.3-17.24c-4.7-12.1,5.46-19.99,5.46-19.99
				L80.85,150.97z"/>
		</defs>
		<clipPath id="SVGID_59_">
			<use xlink:href="#SVGID_58_"  style="overflow:visible;"/>
		</clipPath>
		
			<linearGradient id="SVGID_60_" gradientUnits="userSpaceOnUse" x1="-125.1751" y1="378.765" x2="-124.1751" y2="378.765" gradientTransform="matrix(21.3303 -20.9568 -20.9568 -21.3303 10693.248 5617.4185)">
			<stop  offset="0" style="stop-color:#EEF720"/>
			<stop  offset="0.875" style="stop-color:#F1C92B"/>
			<stop  offset="1" style="stop-color:#F1C92B"/>
		</linearGradient>
		<polygon class="st22" points="62.24,154.28 92.73,124.33 122.81,154.94 92.32,184.9 		"/>
	</g>
	<g class="st0">
		<defs>
			<path id="SVGID_61_" d="M115.45,96.01c0.81,6.35-1.08,12.76-5.72,17.32c-4.51,4.44-10.72,6.23-16.89,5.48
				c-3.62,5.11-6.47,10.19-8.48,14.85c-4.44,10.33-3.49,17.29-3.49,17.29c11.35-7.13,42.57,4.39,54.45,9.21
				c2.92,1.19,6.16,2.16,6.86,2.22c14.97,1.17,16.43-10.74,16.36-15.96c-0.02-1.44-1.11-4.63-1.56-5.74
				c-17.59-43.15-6.33-59.66-6.33-59.66C136.89,82.72,125.59,88.76,115.45,96.01"/>
		</defs>
		<clipPath id="SVGID_62_">
			<use xlink:href="#SVGID_61_"  style="overflow:visible;"/>
		</clipPath>
		
			<linearGradient id="SVGID_63_" gradientUnits="userSpaceOnUse" x1="-125.1751" y1="378.7344" x2="-124.1751" y2="378.7344" gradientTransform="matrix(70.461 -69.2272 -69.2272 -70.461 35124.0859 18176.0332)">
			<stop  offset="0" style="stop-color:#EEF720"/>
			<stop  offset="0.875" style="stop-color:#F1C92B"/>
			<stop  offset="1" style="stop-color:#F1C92B"/>
		</linearGradient>
		<polygon class="st23" points="38.66,121.56 119.96,41.69 199.86,123.02 118.57,202.89 		"/>
	</g>
	<g class="st0">
		<defs>
			<path id="SVGID_64_" d="M80.24,83.32c-6.78,6.66-6.35,18.13,0.95,25.57c7.31,7.44,18.77,8.07,25.55,1.41
				c6.78-6.66,6.35-18.14-0.95-25.57c-3.92-3.99-9.03-6.02-13.97-6.02C87.54,78.71,83.38,80.23,80.24,83.32"/>
		</defs>
		<clipPath id="SVGID_65_">
			<use xlink:href="#SVGID_64_"  style="overflow:visible;"/>
		</clipPath>
		
			<linearGradient id="SVGID_66_" gradientUnits="userSpaceOnUse" x1="-125.1751" y1="378.5652" x2="-124.1751" y2="378.5652" gradientTransform="matrix(24.5986 -24.1678 -24.1678 -24.5986 12309.9375 6396.3599)">
			<stop  offset="0" style="stop-color:#EEF720"/>
			<stop  offset="0.875" style="stop-color:#F1C92B"/>
			<stop  offset="1" style="stop-color:#F1C92B"/>
		</linearGradient>
		<polygon class="st24" points="54.33,97.49 93.84,58.67 132.65,98.17 93.14,136.99 		"/>
	</g>
	<g class="st0">
		<defs>
			<rect id="SVGID_67_" x="-125.18" y="-21.41" width="600" height="400"/>
		</defs>
		<clipPath id="SVGID_68_">
			<use xlink:href="#SVGID_67_"  style="overflow:visible;"/>
		</clipPath>
		<defs>
			<filter id="Adobe_OpacityMaskFilter" filterUnits="userSpaceOnUse" x="242.27" y="75.66" width="30.48" height="30.48">
				<feFlood  style="flood-color:white;flood-opacity:1" result="back"/>
				<feBlend  in="SourceGraphic" in2="back" mode="normal"/>
			</filter>
		</defs>
		<mask maskUnits="userSpaceOnUse" x="242.27" y="75.66" width="30.48" height="30.48" id="SVGID_69_">
			<g class="st25">
				<g class="st26">
					<g>
						<defs>
							<path id="SVGID_70_" d="M272.75,90.9c0,8.42-6.82,15.24-15.24,15.24c-8.42,0-15.24-6.82-15.24-15.24
								c0-8.42,6.82-15.24,15.24-15.24C265.93,75.66,272.75,82.49,272.75,90.9"/>
						</defs>
						<clipPath id="SVGID_71_" class="st27">
							<use xlink:href="#SVGID_70_"  style="overflow:visible;"/>
						</clipPath>
						<defs>
							<filter id="Adobe_OpacityMaskFilter_1_" filterUnits="userSpaceOnUse" x="242.27" y="75.66" width="30.48" height="30.48">
								<feFlood  style="flood-color:white;flood-opacity:1" result="back"/>
								<feBlend  in="SourceGraphic" in2="back" mode="normal"/>
							</filter>
						</defs>
						<mask maskUnits="userSpaceOnUse" x="242.27" y="75.66" width="30.48" height="30.48" id="SVGID_69_">
						</mask>
						
							<radialGradient id="SVGID_72_" cx="-125.1751" cy="378.5864" r="1" gradientTransform="matrix(15.2387 0 0 -15.2387 2165.0225 5860.085)" gradientUnits="userSpaceOnUse">
							<stop  offset="0" style="stop-color:#FFFFFF"/>
							<stop  offset="0.0161" style="stop-color:#FFFFFF"/>
							<stop  offset="0.2152" style="stop-color:#FCFCFC"/>
							<stop  offset="0.3532" style="stop-color:#F3F3F3"/>
							<stop  offset="0.4727" style="stop-color:#E4E4E4"/>
							<stop  offset="0.5817" style="stop-color:#CFCECE"/>
							<stop  offset="0.6836" style="stop-color:#B3B2B2"/>
							<stop  offset="0.7802" style="stop-color:#918F8F"/>
							<stop  offset="0.8726" style="stop-color:#696666"/>
							<stop  offset="0.9595" style="stop-color:#3B3738"/>
							<stop  offset="1" style="stop-color:#231F20"/>
						</radialGradient>
						<rect x="242.27" y="75.66" class="st29" width="30.48" height="30.48"/>
					</g>
				</g>
			</g>
		</mask>
		<g class="st30">
			<g>
				<defs>
					<rect id="SVGID_73_" x="242.27" y="75.66" width="30.48" height="30.48"/>
				</defs>
				<clipPath id="SVGID_74_">
					<use xlink:href="#SVGID_73_"  style="overflow:visible;"/>
				</clipPath>
				<g class="st31">
					<defs>
						<path id="SVGID_75_" d="M272.75,90.9c0,8.42-6.82,15.24-15.24,15.24c-8.42,0-15.24-6.82-15.24-15.24
							c0-8.42,6.82-15.24,15.24-15.24C265.93,75.66,272.75,82.49,272.75,90.9"/>
					</defs>
					<clipPath id="SVGID_76_">
						<use xlink:href="#SVGID_75_"  style="overflow:visible;"/>
					</clipPath>
					
						<radialGradient id="SVGID_77_" cx="-125.1751" cy="378.5864" r="1" gradientTransform="matrix(15.2387 0 0 -15.2387 2165.0227 5860.085)" gradientUnits="userSpaceOnUse">
						<stop  offset="0" style="stop-color:#FFFFFF"/>
						<stop  offset="0.0161" style="stop-color:#FFFFFF"/>
						<stop  offset="0.2611" style="stop-color:#FCFCFC"/>
						<stop  offset="0.4307" style="stop-color:#F3F3F4"/>
						<stop  offset="0.5776" style="stop-color:#E4E4E5"/>
						<stop  offset="0.7116" style="stop-color:#CECFD0"/>
						<stop  offset="0.8368" style="stop-color:#B2B3B5"/>
						<stop  offset="0.9538" style="stop-color:#909194"/>
						<stop  offset="1" style="stop-color:#808285"/>
					</radialGradient>
					<rect x="242.27" y="75.66" class="st32" width="30.48" height="30.48"/>
				</g>
			</g>
		</g>
		<defs>
			<filter id="Adobe_OpacityMaskFilter_2_" filterUnits="userSpaceOnUse" x="242.27" y="248.39" width="30.48" height="30.48">
				<feFlood  style="flood-color:white;flood-opacity:1" result="back"/>
				<feBlend  in="SourceGraphic" in2="back" mode="normal"/>
			</filter>
		</defs>
		<mask maskUnits="userSpaceOnUse" x="242.27" y="248.39" width="30.48" height="30.48" id="SVGID_78_">
			<g class="st33">
				<g class="st26">
					<g>
						<defs>
							<path id="SVGID_79_" d="M272.75,263.63c0,8.42-6.82,15.24-15.24,15.24c-8.42,0-15.24-6.82-15.24-15.24
								c0-8.42,6.82-15.24,15.24-15.24C265.93,248.39,272.75,255.21,272.75,263.63"/>
						</defs>
						<clipPath id="SVGID_80_" class="st27">
							<use xlink:href="#SVGID_79_"  style="overflow:visible;"/>
						</clipPath>
						<defs>
							<filter id="Adobe_OpacityMaskFilter_3_" filterUnits="userSpaceOnUse" x="242.27" y="248.39" width="30.48" height="30.48">
								<feFlood  style="flood-color:white;flood-opacity:1" result="back"/>
								<feBlend  in="SourceGraphic" in2="back" mode="normal"/>
							</filter>
						</defs>
						<mask maskUnits="userSpaceOnUse" x="242.27" y="248.39" width="30.48" height="30.48" id="SVGID_78_">
						</mask>
						
							<radialGradient id="SVGID_81_" cx="-125.1751" cy="378.5864" r="1" gradientTransform="matrix(15.2386 0 0 -15.2386 2164.9976 6032.7358)" gradientUnits="userSpaceOnUse">
							<stop  offset="0" style="stop-color:#FFFFFF"/>
							<stop  offset="0.0161" style="stop-color:#FFFFFF"/>
							<stop  offset="0.2152" style="stop-color:#FCFCFC"/>
							<stop  offset="0.3532" style="stop-color:#F3F3F3"/>
							<stop  offset="0.4727" style="stop-color:#E4E4E4"/>
							<stop  offset="0.5817" style="stop-color:#CFCECE"/>
							<stop  offset="0.6836" style="stop-color:#B3B2B2"/>
							<stop  offset="0.7802" style="stop-color:#918F8F"/>
							<stop  offset="0.8726" style="stop-color:#696666"/>
							<stop  offset="0.9595" style="stop-color:#3B3738"/>
							<stop  offset="1" style="stop-color:#231F20"/>
						</radialGradient>
						<rect x="242.27" y="248.39" class="st35" width="30.48" height="30.48"/>
					</g>
				</g>
			</g>
		</mask>
		<g class="st30">
			<g>
				<defs>
					<rect id="SVGID_82_" x="242.27" y="248.39" width="30.48" height="30.48"/>
				</defs>
				<clipPath id="SVGID_83_">
					<use xlink:href="#SVGID_82_"  style="overflow:visible;"/>
				</clipPath>
				<g class="st36">
					<defs>
						<path id="SVGID_84_" d="M272.75,263.63c0,8.42-6.82,15.24-15.24,15.24c-8.42,0-15.24-6.82-15.24-15.24
							c0-8.42,6.82-15.24,15.24-15.24C265.93,248.39,272.75,255.21,272.75,263.63"/>
					</defs>
					<clipPath id="SVGID_85_">
						<use xlink:href="#SVGID_84_"  style="overflow:visible;"/>
					</clipPath>
					
						<radialGradient id="SVGID_86_" cx="-125.1751" cy="378.5864" r="1" gradientTransform="matrix(15.2386 0 0 -15.2386 2164.9978 6032.7354)" gradientUnits="userSpaceOnUse">
						<stop  offset="0" style="stop-color:#FFFFFF"/>
						<stop  offset="0.0161" style="stop-color:#FFFFFF"/>
						<stop  offset="0.2611" style="stop-color:#FCFCFC"/>
						<stop  offset="0.4307" style="stop-color:#F3F3F4"/>
						<stop  offset="0.5776" style="stop-color:#E4E4E5"/>
						<stop  offset="0.7116" style="stop-color:#CECFD0"/>
						<stop  offset="0.8368" style="stop-color:#B2B3B5"/>
						<stop  offset="0.9538" style="stop-color:#909194"/>
						<stop  offset="1" style="stop-color:#808285"/>
					</radialGradient>
					<rect x="242.27" y="248.39" class="st37" width="30.48" height="30.48"/>
				</g>
			</g>
		</g>
		<defs>
			<filter id="Adobe_OpacityMaskFilter_4_" filterUnits="userSpaceOnUse" x="75.84" y="248.39" width="30.48" height="30.48">
				<feFlood  style="flood-color:white;flood-opacity:1" result="back"/>
				<feBlend  in="SourceGraphic" in2="back" mode="normal"/>
			</filter>
		</defs>
		<mask maskUnits="userSpaceOnUse" x="75.84" y="248.39" width="30.48" height="30.48" id="SVGID_87_">
			<g class="st38">
				<g class="st26">
					<g>
						<defs>
							<path id="SVGID_88_" d="M106.32,263.63c0,8.42-6.82,15.24-15.24,15.24c-8.42,0-15.24-6.82-15.24-15.24
								c0-8.42,6.82-15.24,15.24-15.24C99.5,248.39,106.32,255.21,106.32,263.63"/>
						</defs>
						<clipPath id="SVGID_89_" class="st27">
							<use xlink:href="#SVGID_88_"  style="overflow:visible;"/>
						</clipPath>
						<defs>
							<filter id="Adobe_OpacityMaskFilter_5_" filterUnits="userSpaceOnUse" x="75.84" y="248.39" width="30.48" height="30.48">
								<feFlood  style="flood-color:white;flood-opacity:1" result="back"/>
								<feBlend  in="SourceGraphic" in2="back" mode="normal"/>
							</filter>
						</defs>
						<mask maskUnits="userSpaceOnUse" x="75.84" y="248.39" width="30.48" height="30.48" id="SVGID_87_">
						</mask>
						
							<radialGradient id="SVGID_90_" cx="-125.1751" cy="378.5864" r="1" gradientTransform="matrix(15.2385 0 0 -15.2385 1998.5631 6032.7261)" gradientUnits="userSpaceOnUse">
							<stop  offset="0" style="stop-color:#FFFFFF"/>
							<stop  offset="0.0161" style="stop-color:#FFFFFF"/>
							<stop  offset="0.2152" style="stop-color:#FCFCFC"/>
							<stop  offset="0.3532" style="stop-color:#F3F3F3"/>
							<stop  offset="0.4727" style="stop-color:#E4E4E4"/>
							<stop  offset="0.5817" style="stop-color:#CFCECE"/>
							<stop  offset="0.6836" style="stop-color:#B3B2B2"/>
							<stop  offset="0.7802" style="stop-color:#918F8F"/>
							<stop  offset="0.8726" style="stop-color:#696666"/>
							<stop  offset="0.9595" style="stop-color:#3B3738"/>
							<stop  offset="1" style="stop-color:#231F20"/>
						</radialGradient>
						<rect x="75.84" y="248.39" class="st40" width="30.48" height="30.48"/>
					</g>
				</g>
			</g>
		</mask>
		<g class="st30">
			<g>
				<defs>
					<rect id="SVGID_91_" x="75.84" y="248.39" width="30.48" height="30.48"/>
				</defs>
				<clipPath id="SVGID_92_">
					<use xlink:href="#SVGID_91_"  style="overflow:visible;"/>
				</clipPath>
				<g class="st41">
					<defs>
						<path id="SVGID_93_" d="M106.32,263.63c0,8.42-6.82,15.24-15.24,15.24c-8.42,0-15.24-6.82-15.24-15.24
							c0-8.42,6.82-15.24,15.24-15.24C99.5,248.39,106.32,255.21,106.32,263.63"/>
					</defs>
					<clipPath id="SVGID_94_">
						<use xlink:href="#SVGID_93_"  style="overflow:visible;"/>
					</clipPath>
					
						<radialGradient id="SVGID_95_" cx="-125.1751" cy="378.5864" r="1" gradientTransform="matrix(15.2385 0 0 -15.2385 1998.5632 6032.7256)" gradientUnits="userSpaceOnUse">
						<stop  offset="0" style="stop-color:#FFFFFF"/>
						<stop  offset="0.0161" style="stop-color:#FFFFFF"/>
						<stop  offset="0.2611" style="stop-color:#FCFCFC"/>
						<stop  offset="0.4307" style="stop-color:#F3F3F4"/>
						<stop  offset="0.5776" style="stop-color:#E4E4E5"/>
						<stop  offset="0.7116" style="stop-color:#CECFD0"/>
						<stop  offset="0.8368" style="stop-color:#B2B3B5"/>
						<stop  offset="0.9538" style="stop-color:#909194"/>
						<stop  offset="1" style="stop-color:#808285"/>
					</radialGradient>
					<rect x="75.84" y="248.39" class="st42" width="30.48" height="30.48"/>
				</g>
			</g>
		</g>
		<defs>
			<filter id="Adobe_OpacityMaskFilter_6_" filterUnits="userSpaceOnUse" x="75.84" y="78.5" width="30.48" height="30.48">
				<feFlood  style="flood-color:white;flood-opacity:1" result="back"/>
				<feBlend  in="SourceGraphic" in2="back" mode="normal"/>
			</filter>
		</defs>
		<mask maskUnits="userSpaceOnUse" x="75.84" y="78.5" width="30.48" height="30.48" id="SVGID_96_">
			<g class="st43">
				<g class="st26">
					<g>
						<defs>
							<path id="SVGID_97_" d="M106.32,93.73c0,8.42-6.82,15.24-15.24,15.24c-8.42,0-15.24-6.82-15.24-15.24
								c0-8.42,6.82-15.24,15.24-15.24C99.5,78.5,106.32,85.32,106.32,93.73"/>
						</defs>
						<clipPath id="SVGID_98_" class="st27">
							<use xlink:href="#SVGID_97_"  style="overflow:visible;"/>
						</clipPath>
						<defs>
							<filter id="Adobe_OpacityMaskFilter_7_" filterUnits="userSpaceOnUse" x="75.84" y="78.5" width="30.48" height="30.48">
								<feFlood  style="flood-color:white;flood-opacity:1" result="back"/>
								<feBlend  in="SourceGraphic" in2="back" mode="normal"/>
							</filter>
						</defs>
						<mask maskUnits="userSpaceOnUse" x="75.84" y="78.5" width="30.48" height="30.48" id="SVGID_96_">
						</mask>
						
							<radialGradient id="SVGID_99_" cx="-125.1751" cy="378.5864" r="1" gradientTransform="matrix(15.2384 0 0 -15.2384 1998.5475 5862.7852)" gradientUnits="userSpaceOnUse">
							<stop  offset="0" style="stop-color:#FFFFFF"/>
							<stop  offset="0.0161" style="stop-color:#FFFFFF"/>
							<stop  offset="0.2152" style="stop-color:#FCFCFC"/>
							<stop  offset="0.3532" style="stop-color:#F3F3F3"/>
							<stop  offset="0.4727" style="stop-color:#E4E4E4"/>
							<stop  offset="0.5817" style="stop-color:#CFCECE"/>
							<stop  offset="0.6836" style="stop-color:#B3B2B2"/>
							<stop  offset="0.7802" style="stop-color:#918F8F"/>
							<stop  offset="0.8726" style="stop-color:#696666"/>
							<stop  offset="0.9595" style="stop-color:#3B3738"/>
							<stop  offset="1" style="stop-color:#231F20"/>
						</radialGradient>
						<rect x="75.84" y="78.5" class="st45" width="30.48" height="30.48"/>
					</g>
				</g>
			</g>
		</mask>
		<g class="st30">
			<g>
				<defs>
					<rect id="SVGID_100_" x="75.84" y="78.5" width="30.48" height="30.48"/>
				</defs>
				<clipPath id="SVGID_101_">
					<use xlink:href="#SVGID_100_"  style="overflow:visible;"/>
				</clipPath>
				<g class="st46">
					<defs>
						<path id="SVGID_102_" d="M106.32,93.73c0,8.42-6.82,15.24-15.24,15.24c-8.42,0-15.24-6.82-15.24-15.24
							c0-8.42,6.82-15.24,15.24-15.24C99.5,78.5,106.32,85.32,106.32,93.73"/>
					</defs>
					<clipPath id="SVGID_103_">
						<use xlink:href="#SVGID_102_"  style="overflow:visible;"/>
					</clipPath>
					
						<radialGradient id="SVGID_104_" cx="-125.1751" cy="378.5864" r="1" gradientTransform="matrix(15.2384 0 0 -15.2384 1998.5476 5862.7852)" gradientUnits="userSpaceOnUse">
						<stop  offset="0" style="stop-color:#FFFFFF"/>
						<stop  offset="0.0161" style="stop-color:#FFFFFF"/>
						<stop  offset="0.2611" style="stop-color:#FCFCFC"/>
						<stop  offset="0.4307" style="stop-color:#F3F3F4"/>
						<stop  offset="0.5776" style="stop-color:#E4E4E5"/>
						<stop  offset="0.7116" style="stop-color:#CECFD0"/>
						<stop  offset="0.8368" style="stop-color:#B2B3B5"/>
						<stop  offset="0.9538" style="stop-color:#909194"/>
						<stop  offset="1" style="stop-color:#808285"/>
					</radialGradient>
					<rect x="75.84" y="78.5" class="st47" width="30.48" height="30.48"/>
				</g>
			</g>
		</g>
		<path class="st48" d="M174.82,138.31c-22.25,0-40.28,18.03-40.28,40.28s18.03,40.28,40.28,40.28s40.28-18.03,40.28-40.28
			S197.07,138.31,174.82,138.31 M174.82,212.93c-18.94,0-34.34-15.4-34.34-34.34s15.4-34.34,34.34-34.34
			c18.93,0,34.34,15.4,34.34,34.34S193.75,212.93,174.82,212.93 M174.82,138.31c-22.25,0-40.28,18.03-40.28,40.28
			s18.03,40.28,40.28,40.28s40.28-18.03,40.28-40.28S197.07,138.31,174.82,138.31 M174.82,212.93c-18.94,0-34.34-15.4-34.34-34.34
			s15.4-34.34,34.34-34.34c18.93,0,34.34,15.4,34.34,34.34S193.75,212.93,174.82,212.93 M252.42,165.25l-0.66-3.89h-17.8
			c-1.25-4.31-2.97-8.47-5.14-12.41l12.58-12.58l-2.27-3.21c-5.19-7.34-11.54-13.69-18.88-18.88l-3.21-2.27l-12.58,12.58
			c-3.94-2.17-8.1-3.89-12.41-5.15v-17.79l-3.89-0.66c-4.39-0.76-8.89-1.14-13.34-1.14c-4.46,0-8.95,0.38-13.34,1.14l-3.89,0.66
			v17.79c-4.31,1.26-8.47,2.98-12.41,5.15L132.6,112l-3.22,2.28c-7.33,5.19-13.68,11.54-18.87,18.87l-2.27,3.22l12.58,12.58
			c-2.17,3.95-3.89,8.1-5.15,12.41H97.88l-0.67,3.89c-0.75,4.4-1.13,8.89-1.13,13.34s0.38,8.94,1.13,13.34l0.67,3.89h17.79
			c1.26,4.31,2.98,8.47,5.15,12.41l-12.58,12.58l2.27,3.22c5.19,7.33,11.54,13.68,18.87,18.87l3.22,2.27l12.58-12.58
			c3.94,2.17,8.1,3.89,12.41,5.15v17.79l3.89,0.66c4.4,0.75,8.89,1.14,13.34,1.14c4.45,0,8.94-0.39,13.34-1.14l3.89-0.66v-17.79
			c4.31-1.26,8.47-2.98,12.41-5.15l12.58,12.58l3.21-2.27c7.34-5.19,13.69-11.54,18.88-18.87l2.27-3.22l-12.58-12.58
			c2.17-3.94,3.89-8.1,5.15-12.41h17.79l0.66-3.89c0.75-4.4,1.14-8.89,1.14-13.34S253.17,169.65,252.42,165.25 M174.82,226.91
			c-26.69,0-48.32-21.63-48.32-48.32s21.63-48.32,48.32-48.32c26.69,0,48.32,21.63,48.32,48.32S201.51,226.91,174.82,226.91
			 M174.82,138.31c-22.25,0-40.28,18.03-40.28,40.28s18.03,40.28,40.28,40.28s40.28-18.03,40.28-40.28S197.07,138.31,174.82,138.31
			 M174.82,212.93c-18.94,0-34.34-15.4-34.34-34.34s15.4-34.34,34.34-34.34c18.93,0,34.34,15.4,34.34,34.34
			S193.75,212.93,174.82,212.93"/>
	</g>
	<g class="st0">
		<defs>
			<path id="SVGID_105_" d="M173.73,144.98c18.93,0,34.34,15.4,34.34,34.34s-15.41,34.34-34.34,34.34
				c-18.94,0-34.34-15.4-34.34-34.34S154.79,144.98,173.73,144.98 M133.45,179.32c0,22.25,18.03,40.28,40.28,40.28
				c22.25,0,40.28-18.03,40.28-40.28c0-22.25-18.03-40.28-40.28-40.28C151.48,139.04,133.45,157.07,133.45,179.32 M125.41,179.32
				c0-26.69,21.63-48.32,48.32-48.32c26.69,0,48.32,21.63,48.32,48.32s-21.63,48.32-48.32,48.32
				C147.04,227.64,125.41,206.01,125.41,179.32 M161.17,106.32v17.47c-6.42,1.45-12.43,3.98-17.82,7.39l-12.36-12.36
				c-6.88,4.87-12.89,10.88-17.76,17.76l12.36,12.36c-3.41,5.39-5.94,11.4-7.39,17.82h-17.47c-0.7,4.08-1.06,8.28-1.06,12.56
				s0.36,8.47,1.06,12.56h17.47c1.45,6.42,3.98,12.43,7.39,17.82l-12.36,12.36c4.87,6.87,10.88,12.89,17.76,17.75l12.36-12.35
				c5.39,3.41,11.4,5.94,17.82,7.39v17.47c4.08,0.7,8.28,1.06,12.56,1.06c4.28,0,8.47-0.36,12.56-1.06v-17.47
				c6.42-1.45,12.42-3.98,17.82-7.39l12.36,12.35c6.88-4.86,12.89-10.88,17.75-17.75l-12.35-12.36c3.41-5.4,5.94-11.4,7.39-17.82
				h17.47c0.7-4.09,1.06-8.28,1.06-12.56s-0.36-8.48-1.06-12.56h-17.47c-1.45-6.42-3.98-12.43-7.39-17.82l12.35-12.36
				c-4.86-6.88-10.87-12.89-17.75-17.76l-12.36,12.36c-5.4-3.41-11.4-5.94-17.82-7.39v-17.47c-4.09-0.7-8.28-1.06-12.56-1.06
				C169.45,105.26,165.25,105.62,161.17,106.32"/>
		</defs>
		<clipPath id="SVGID_106_">
			<use xlink:href="#SVGID_105_"  style="overflow:visible;"/>
		</clipPath>
		
			<radialGradient id="SVGID_107_" cx="-125.1751" cy="378.5864" r="1" gradientTransform="matrix(74.06 0 0 -74.06 9444.1943 28217.4277)" gradientUnits="userSpaceOnUse">
			<stop  offset="0" style="stop-color:#FFFFFF"/>
			<stop  offset="1" style="stop-color:#000015"/>
		</radialGradient>
		<rect x="99.67" y="105.26" class="st49" width="148.12" height="148.12"/>
	</g>
	<g class="st0">
		<defs>
			<rect id="SVGID_108_" x="-125.18" y="-21.41" width="600" height="400"/>
		</defs>
		<clipPath id="SVGID_109_">
			<use xlink:href="#SVGID_108_"  style="overflow:visible;"/>
		</clipPath>
		<path class="st50" d="M174.82,138.31c-22.25,0-40.28,18.03-40.28,40.28s18.03,40.28,40.28,40.28s40.28-18.03,40.28-40.28
			S197.07,138.31,174.82,138.31 M174.82,212.93c-18.94,0-34.34-15.4-34.34-34.34s15.4-34.34,34.34-34.34
			c18.93,0,34.34,15.4,34.34,34.34S193.75,212.93,174.82,212.93"/>
		<path class="st50" d="M174.82,130.27c-26.69,0-48.32,21.63-48.32,48.32s21.63,48.32,48.32,48.32c26.69,0,48.32-21.63,48.32-48.32
			S201.51,130.27,174.82,130.27 M174.82,218.87c-22.25,0-40.28-18.03-40.28-40.28s18.03-40.28,40.28-40.28s40.28,18.03,40.28,40.28
			S197.07,218.87,174.82,218.87"/>
		<path class="st50" d="M174.82,144.25c-18.94,0-34.34,15.4-34.34,34.34s15.4,34.34,34.34,34.34c18.93,0,34.34-15.4,34.34-34.34
			S193.75,144.25,174.82,144.25 M174.82,202.37c-13.11,0-23.78-10.67-23.78-23.78s10.67-23.78,23.78-23.78
			c13.11,0,23.78,10.67,23.78,23.78S187.93,202.37,174.82,202.37"/>
		<path class="st50" d="M192.97,178.59c0,10.03-8.12,18.15-18.15,18.15s-18.15-8.12-18.15-18.15c0-10.03,8.12-18.15,18.15-18.15
			S192.97,168.56,192.97,178.59"/>
		<g class="st51">
			<g>
				<defs>
					<rect id="SVGID_110_" x="156.67" y="160.44" width="36.3" height="36.3"/>
				</defs>
				<clipPath id="SVGID_111_">
					<use xlink:href="#SVGID_110_"  style="overflow:visible;"/>
				</clipPath>
				<g class="st52">
					<defs>
						<path id="SVGID_112_" d="M174.82,160.44c-10.03,0-18.15,8.12-18.15,18.15s8.12,18.15,18.15,18.15s18.15-8.12,18.15-18.15
							S184.85,160.44,174.82,160.44 M174.82,193.72c-8.36,0-15.13-6.77-15.13-15.13s6.77-15.13,15.13-15.13s15.13,6.77,15.13,15.13
							S183.18,193.72,174.82,193.72"/>
					</defs>
					<clipPath id="SVGID_113_">
						<use xlink:href="#SVGID_112_"  style="overflow:visible;"/>
					</clipPath>
					
						<radialGradient id="SVGID_114_" cx="-125.1751" cy="378.5864" r="1" gradientTransform="matrix(18.15 0 0 -18.15 2446.7542 7049.9336)" gradientUnits="userSpaceOnUse">
						<stop  offset="0" style="stop-color:#FFFFFF"/>
						<stop  offset="0.1953" style="stop-color:#FCFCFC"/>
						<stop  offset="0.3293" style="stop-color:#F3F3F4"/>
						<stop  offset="0.4449" style="stop-color:#E4E4E6"/>
						<stop  offset="0.5501" style="stop-color:#CECED2"/>
						<stop  offset="0.6483" style="stop-color:#B2B2B8"/>
						<stop  offset="0.7413" style="stop-color:#909099"/>
						<stop  offset="0.8302" style="stop-color:#676773"/>
						<stop  offset="0.915" style="stop-color:#383848"/>
						<stop  offset="0.9954" style="stop-color:#030318"/>
						<stop  offset="1" style="stop-color:#000015"/>
					</radialGradient>
					<rect x="156.67" y="160.44" class="st53" width="36.3" height="36.3"/>
				</g>
			</g>
		</g>
		<g class="st54">
			<g>
				<defs>
					<rect id="SVGID_115_" x="134.54" y="138.31" width="80.56" height="80.56"/>
				</defs>
				<clipPath id="SVGID_116_">
					<use xlink:href="#SVGID_115_"  style="overflow:visible;"/>
				</clipPath>
				<g class="st55">
					<defs>
						<path id="SVGID_117_" d="M174.82,138.31c-22.25,0-40.28,18.03-40.28,40.28s18.03,40.28,40.28,40.28s40.28-18.03,40.28-40.28
							S197.07,138.31,174.82,138.31 M174.82,214.11c-19.59,0-35.52-15.93-35.52-35.52s15.93-35.52,35.52-35.52
							c19.58,0,35.52,15.93,35.52,35.52S194.4,214.11,174.82,214.11"/>
					</defs>
					<clipPath id="SVGID_118_">
						<use xlink:href="#SVGID_117_"  style="overflow:visible;"/>
					</clipPath>
					
						<radialGradient id="SVGID_119_" cx="-125.1751" cy="378.5864" r="1" gradientTransform="matrix(40.28 0 0 -40.28 5216.8794 15428.0527)" gradientUnits="userSpaceOnUse">
						<stop  offset="0" style="stop-color:#FFFFFF"/>
						<stop  offset="0.1953" style="stop-color:#FCFCFC"/>
						<stop  offset="0.3293" style="stop-color:#F3F3F4"/>
						<stop  offset="0.4449" style="stop-color:#E4E4E6"/>
						<stop  offset="0.5501" style="stop-color:#CECED2"/>
						<stop  offset="0.6483" style="stop-color:#B2B2B8"/>
						<stop  offset="0.7413" style="stop-color:#909099"/>
						<stop  offset="0.8302" style="stop-color:#676773"/>
						<stop  offset="0.915" style="stop-color:#383848"/>
						<stop  offset="0.9954" style="stop-color:#030318"/>
						<stop  offset="1" style="stop-color:#000015"/>
					</radialGradient>
					<rect x="134.54" y="138.31" class="st56" width="80.56" height="80.56"/>
				</g>
				<g class="st55">
					<defs>
						<path id="SVGID_120_" d="M174.82,154.81c-13.11,0-23.78,10.67-23.78,23.78s10.67,23.78,23.78,23.78s23.78-10.67,23.78-23.78
							S187.93,154.81,174.82,154.81 M174.82,196.74c-10.03,0-18.15-8.12-18.15-18.15s8.12-18.15,18.15-18.15s18.15,8.12,18.15,18.15
							S184.85,196.74,174.82,196.74"/>
					</defs>
					<clipPath id="SVGID_121_">
						<use xlink:href="#SVGID_120_"  style="overflow:visible;"/>
					</clipPath>
					
						<radialGradient id="SVGID_122_" cx="-125.1751" cy="378.5864" r="1" gradientTransform="matrix(23.78 0 0 -23.78 3151.4905 9181.377)" gradientUnits="userSpaceOnUse">
						<stop  offset="0" style="stop-color:#FFFFFF"/>
						<stop  offset="0.1953" style="stop-color:#FCFCFC"/>
						<stop  offset="0.3293" style="stop-color:#F3F3F4"/>
						<stop  offset="0.4449" style="stop-color:#E4E4E6"/>
						<stop  offset="0.5501" style="stop-color:#CECED2"/>
						<stop  offset="0.6483" style="stop-color:#B2B2B8"/>
						<stop  offset="0.7413" style="stop-color:#909099"/>
						<stop  offset="0.8302" style="stop-color:#676773"/>
						<stop  offset="0.915" style="stop-color:#383848"/>
						<stop  offset="0.9954" style="stop-color:#030318"/>
						<stop  offset="1" style="stop-color:#000015"/>
					</radialGradient>
					<rect x="151.04" y="154.81" class="st57" width="47.56" height="47.56"/>
				</g>
			</g>
		</g>
	</g>
</g>
</svg>
