<?xml version="1.0" encoding="utf-8"?>
<!-- Generator: Adobe Illustrator 23.0.5, SVG Export Plug-In . SVG Version: 6.00 Build 0)  -->
<svg version="1.1" id="Layer_1" xmlns="http://www.w3.org/2000/svg" xmlns:xlink="http://www.w3.org/1999/xlink" x="0px" y="0px"
	 viewBox="0 0 426.23 441.6" style="enable-background:new 0 0 426.23 441.6;" xml:space="preserve">
<style type="text/css">
	.st0{fill:#FFFFFF;}
</style>
<g>
	<line class="st0" x1="106.16" y1="195.33" x2="101.53" y2="186"/>
	<g>
		<line class="st0" x1="106.16" y1="195.33" x2="101.53" y2="186"/>
		<polygon class="st0" points="208.5,224.87 208.5,414.14 188.05,402.33 167.6,390.52 151.23,357.32 147.13,349.02 134.84,324.1 
			126.66,307.5 118.45,290.87 106.16,265.92 102.05,257.6 85.64,224.33 85.64,343.2 65.12,331.35 44.59,319.49 44.59,130.24 
			65.12,142.09 85.64,153.94 101.53,186 106.16,195.33 118.07,219.36 126.66,236.7 134.59,252.68 147.13,278.01 151.09,286 
			167.6,319.3 167.6,201.26 188.05,213.07 		"/>
		<line class="st0" x1="65.12" y1="331.36" x2="65.12" y2="331.35"/>
	</g>
	<g>
		<polygon class="st0" points="258.63,248.61 258.63,272.34 279.09,260.49 299.57,248.62 320.07,236.74 340.58,224.87 
			361.11,212.98 381.64,201.07 381.64,319.49 361.11,331.35 340.58,343.2 320.07,355.05 299.57,366.88 279.09,378.71 258.63,390.52 
			238.17,402.33 217.73,414.14 217.73,367.21 238.17,355.39 258.63,343.57 279.09,331.73 299.57,319.9 320.07,308.04 340.58,296.19 
			340.58,272.41 320.07,284.28 299.57,296.14 279.09,307.99 258.63,319.83 238.17,331.66 217.73,343.49 217.73,224.87 
			238.17,213.07 258.63,201.26 279.09,189.44 299.57,177.62 320.07,165.78 340.58,153.94 361.11,142.09 381.64,130.24 
			381.64,177.28 361.11,189.19 340.58,201.09 320.07,212.99 299.57,224.87 279.09,236.74 		"/>
		<line class="st0" x1="238.17" y1="402.86" x2="238.17" y2="402.33"/>
		<line class="st0" x1="238.17" y1="213.07" x2="238.17" y2="213"/>
		<line class="st0" x1="258.63" y1="391.05" x2="258.63" y2="390.52"/>
		<line class="st0" x1="258.63" y1="201.26" x2="258.63" y2="201.12"/>
		<line class="st0" x1="279.09" y1="379.23" x2="279.09" y2="378.71"/>
		<line class="st0" x1="279.09" y1="189.44" x2="279.09" y2="189.24"/>
		<line class="st0" x1="299.57" y1="367.41" x2="299.57" y2="366.88"/>
		<line class="st0" x1="299.57" y1="177.62" x2="299.57" y2="177.35"/>
		<polyline class="st0" points="320.07,355.58 320.07,355.57 320.07,355.05 		"/>
		<line class="st0" x1="320.07" y1="165.78" x2="320.07" y2="165.45"/>
		<line class="st0" x1="340.58" y1="343.74" x2="340.58" y2="343.2"/>
		<line class="st0" x1="340.58" y1="153.94" x2="340.58" y2="153.54"/>
		<line class="st0" x1="361.11" y1="331.88" x2="361.11" y2="331.35"/>
		<line class="st0" x1="361.11" y1="142.09" x2="361.11" y2="141.63"/>
	</g>
	<g>
		<polyline class="st0" points="315.78,86.87 295.3,75.05 274.81,63.22 254.3,51.37 233.76,39.52 213.23,27.66 213.58,27.47 
			234.11,39.32 254.63,51.18 275.15,63.02 295.65,74.85 316.12,86.67 		"/>
		<polygon class="st0" points="254.09,193.2 254.21,193.27 233.66,205.14 213.11,217 192.61,205.23 172.1,193.46 151.58,181.67 
			131.04,169.87 110.48,158.08 89.93,146.27 69.35,134.45 48.74,122.63 49.31,122.29 69.85,134.16 90.38,146 110.89,157.85 
			151.87,181.51 172.33,193.32 192.79,205.13 213.11,216.87 233.54,205.07 		"/>
		<polygon class="st0" points="315.85,157.68 295.3,169.55 274.75,181.42 274.64,181.35 295.18,169.48 315.73,157.62 		"/>
		<line class="st0" x1="315.85" y1="157.68" x2="315.73" y2="157.62"/>
		<line class="st0" x1="295.3" y1="169.55" x2="295.18" y2="169.48"/>
		<line class="st0" x1="274.75" y1="181.42" x2="274.64" y2="181.35"/>
		<line class="st0" x1="254.21" y1="193.27" x2="254.09" y2="193.2"/>
		<line class="st0" x1="233.66" y1="205.14" x2="233.54" y2="205.07"/>
		<polygon class="st0" points="295.39,145.9 315.73,157.62 295.18,169.48 274.64,181.35 254.28,169.63 233.79,157.85 213.28,146.05 
			192.76,134.24 172.23,122.43 151.68,110.61 131.1,122.5 172.19,146.12 192.72,157.92 213.23,169.71 233.73,181.5 254.09,193.2 
			233.54,205.07 213.11,216.87 192.79,205.13 172.33,193.32 151.87,181.51 110.89,157.85 90.38,146 69.85,134.16 49.31,122.29 
			69.35,110.74 89.95,98.84 110.55,86.95 151.76,63.15 172.37,51.26 192.97,39.36 213.23,27.66 233.76,39.52 254.3,51.37 
			274.81,63.22 295.3,75.05 315.78,86.87 295.55,98.55 274.98,110.43 254.5,98.61 233.98,86.79 213.46,74.94 192.88,86.83 
			213.4,98.67 233.93,110.49 254.43,122.29 274.91,134.1 		"/>
		<line class="st0" x1="192.79" y1="205.13" x2="192.61" y2="205.23"/>
		<line class="st0" x1="172.33" y1="193.32" x2="172.1" y2="193.46"/>
		<line class="st0" x1="316.12" y1="86.67" x2="315.78" y2="86.87"/>
		<line class="st0" x1="151.87" y1="181.51" x2="151.58" y2="181.67"/>
		<line class="st0" x1="295.65" y1="74.85" x2="295.3" y2="75.05"/>
		<line class="st0" x1="131.38" y1="169.68" x2="131.04" y2="169.87"/>
		<line class="st0" x1="275.15" y1="63.02" x2="274.81" y2="63.22"/>
		<line class="st0" x1="110.89" y1="157.85" x2="110.48" y2="158.08"/>
		<line class="st0" x1="254.63" y1="51.18" x2="254.3" y2="51.37"/>
		<line class="st0" x1="90.38" y1="146" x2="89.93" y2="146.27"/>
		<line class="st0" x1="234.11" y1="39.32" x2="233.76" y2="39.52"/>
		<line class="st0" x1="69.85" y1="134.16" x2="69.35" y2="134.45"/>
	</g>
	<g>
		<g>
			<polygon class="st0" points="333.17,124.34 326.12,117.48 326.12,153.7 			"/>
			<polygon class="st0" points="319.12,124.34 326.16,117.48 326.16,153.7 			"/>
		</g>
		<g>
			<polygon class="st0" points="319.14,110.61 326.18,117.48 326.18,81.25 			"/>
			<polygon class="st0" points="333.19,110.61 326.14,117.48 326.14,81.25 			"/>
		</g>
		<g>
			<polygon class="st0" points="333.05,110.45 326.18,117.5 362.41,117.5 			"/>
			<polygon class="st0" points="333.05,124.5 326.18,117.46 362.41,117.46 			"/>
		</g>
		<g>
			<polygon class="st0" points="319.26,124.48 326.12,117.43 289.9,117.43 			"/>
			<polygon class="st0" points="319.26,110.43 326.12,117.48 289.9,117.48 			"/>
		</g>
	</g>
</g>
</svg>
