<?xml version="1.0" encoding="utf-8"?>
<!-- Generator: Adobe Illustrator 23.0.5, SVG Export Plug-In . SVG Version: 6.00 Build 0)  -->
<svg version="1.1" id="Layer_1" xmlns="http://www.w3.org/2000/svg" xmlns:xlink="http://www.w3.org/1999/xlink" x="0px" y="0px"
	 viewBox="0 0 499.5 214" style="enable-background:new 0 0 499.5 214;" xml:space="preserve">
<style type="text/css">
	.st0{fill:#3960AD;}
	.st1{fill:#19191B;}
</style>
<g>
	<path class="st0" d="M403.2,65.3c-3.9,12.7-7.8,25.3-11.6,37.9c-16.4,0-32.5,0-48.6,0c-0.9-1.6,0.3-2.6,0.8-3.9
		c1.3-3.3,2.8-6.6,3.9-10c1.6-5.3,4-10.3,5.9-15.4c1.8-4.8,3.1-9.9,5.3-14.5c2.1-4.4,3.1-9.2,5.1-13.6c1.7-3.9,2.7-8,4.3-11.9
		c2.1-5,3.2-10.4,6-15.1c19.8,0,39.5,0,59.6,0c10.5,27.9,21,56,31.6,84.3c-16.9,0-33.4,0-50.1,0c-3.9-12.6-7.7-25.3-11.6-37.9
		C403.5,65.3,403.3,65.3,403.2,65.3z"/>
	<path class="st0" d="M140,103.2c0-28.2,0-56.1,0-84.3c16.9,0,33.9,0,51.1,0c19,27.9,38.1,56,57.4,84.4c-1.3,0-2.1,0-2.9,0
		c-15.7,0-31.4,0-47.1,0.1c-2.4,0-4.5-0.1-5.4-2.9c-0.2-0.7-0.9-1.2-1.6-2.2c0,1.9,0,3.3,0,4.9C174.3,103.2,157.3,103.2,140,103.2z"
		/>
	<path class="st1" d="M54.6,103.2c-18.2,0-36.2,0-54.4,0c0-28.1,0-56.2,0-84.4c18.1,0,36.2,0,54.4,0C54.6,46.9,54.6,75.1,54.6,103.2
		z"/>
	<path class="st0" d="M308.9,103.2c-17.3,0-34.4,0-51.6,0c0-28.2,0-56.2,0-84.3c17.3,0,34.4,0,51.6,0
		C308.9,47.1,308.9,75.2,308.9,103.2z"/>
	<path class="st0" d="M330.7,135.3c1.6-4.4,3.1-8.7,4.6-12.9c16.8,0,33.4,0,50.4,0c-0.5,1.8-0.9,3.5-1.4,5.2c12.8,0,25.5,0,38.4,0
		c-0.5-1.7-1-3.4-1.5-5.2c17.3,0,34.3,0,51.5,0c2,4,3.4,8.5,5,12.9C428.7,135.3,379.8,135.3,330.7,135.3z"/>
	<path class="st0" d="M324.6,150.5c1.5-3.4,1.8-6.8,3.3-10c50.4,0,100.9,0,151.6,0c1.3,3.2,2.6,6.5,4.1,10
		C430.5,150.5,377.8,150.5,324.6,150.5z"/>
	<path class="st0" d="M309,106.8c0,3.9,0,7.7,0,11.7c-34.6,0-69.1,0-103.8,0c-2.7-3.6-5.2-7.5-7.8-11.7c18.1,0,35.8,0,53.7,0
		c1.8,2.9,3.7,5.8,5.6,8.8c0.1,0,0.3-0.1,0.4-0.1c0-2.8,0-5.7,0-8.7C274.6,106.8,291.7,106.8,309,106.8z"/>
	<path class="st0" d="M309,122.4c0,4.4,0,8.5,0,12.7c-1,0.5-2,0.3-2.9,0.3c-28.9,0-57.9,0-86.8,0c-1.9,0-3.2-0.5-4.2-2.2
		c-2.2-3.6-5.1-6.8-7.1-10.9C241.7,122.4,275.3,122.4,309,122.4z"/>
	<path class="st0" d="M486,157.4c0.9,2.1,1.8,4.1,2.7,6.3c-56.4,0-112.6,0-168.8,0c0-1.1,1.7-5,2.8-6.3
		C377,157.4,431.4,157.4,486,157.4z"/>
	<path class="st1" d="M140,179.2c-0.2,0.1-0.4,0.3-0.6,0.4h0.1c-1-0.1-2-0.2-3-0.2c-44.3,0-88.7,0-133,0c-1.2,0-2.3,0-3.6,0
		c0-2.1,0-4.1,0-6.2c0.9,0,1.6,0,2.4,0c45.1,0,90.3,0,135.4,0c0.8,0,1.7-0.2,2.5,0.3C140,175.4,140,177.3,140,179.2z"/>
	<path class="st1" d="M139.8,163.6c-0.7,0-1.4,0.1-2.1,0.1c-45,0-90,0-135,0c-0.9,0-1.9,0-2.9,0c0-2.3,0-4.4,0-6.6
		c0.7,0,1.3,0,1.9,0c45.6,0,91.2,0,136.8,0c0.2,0,0.5,0,0.7,0C140.2,159.2,139.5,161.5,139.8,163.6z"/>
	<path class="st0" d="M309,140.7c0,3.3,0,6.4,0,9.9c-27.4,0-54.7,0-82.2,0c-1.9-3-4.7-5.9-6.5-9.9
		C250.1,140.7,279.5,140.7,309,140.7z"/>
	<path class="st1" d="M139.8,195c-0.6,0-1.1,0.1-1.6,0.1c-45.4,0-90.7,0-136.1,0c-0.5,0-1.1,0-1.8,0c-0.5-1.9-0.1-3.7-0.2-5.8
		c1,0,1.9,0,2.7,0c44.7,0,89.5,0,134.2,0c1,0,2-0.2,3,0.2C140,191.4,139.9,193.2,139.8,195z"/>
	<path class="st1" d="M0.2,135.3c0-4.4,0-8.6,0-12.9c18.1,0,36.2,0,54.5,0c0,4.2,0,8.5,0,12.9C36.6,135.3,18.5,135.3,0.2,135.3z"/>
	<path class="st0" d="M191.3,122.5c0,4.4,0,8.5,0,12.8c-17.1,0-34,0-51.1,0c0-4.2,0-8.4,0-12.8C157.2,122.5,174.1,122.5,191.3,122.5
		z"/>
	<path class="st1" d="M0.2,118.4c0-4,0-7.8,0-11.7c18.2,0,36.3,0,54.5,0c0,3.9,0,7.7,0,11.7C36.6,118.4,18.5,118.4,0.2,118.4z"/>
	<path class="st0" d="M140.2,118.5c-0.4-4-0.6-7.9-0.1-11.7c16.9,0,34,0,51.2,0c0,3.9,0,7.7,0,11.7
		C174.3,118.5,157.4,118.5,140.2,118.5z"/>
	<path class="st0" d="M256.9,195c-1-1.9-2.8-3.2-3.3-5.5c37.4,0,74.7,0,112.3,0c-0.8,2-1.4,3.8-2.1,5.5
		C328.2,195,292.6,195,256.9,195z"/>
	<path class="st0" d="M466.7,106.8c1.5,3.9,3,7.8,4.5,11.8c-17.1,0-33.9,0-50.9,0c-1.2-3.9-2.4-7.8-3.7-11.8
		C433.3,106.8,449.9,106.8,466.7,106.8z"/>
	<path class="st0" d="M390.6,106.7c-1.2,4-2.4,7.8-3.6,11.8c-16.7,0-33.3,0-50.1,0c0.7-4.2,2.8-7.9,4.4-11.8
		C357.7,106.7,374.1,106.7,390.6,106.7z"/>
	<path class="st1" d="M0.2,150.5c0-3.3,0-6.5,0-9.9c18.1,0,36.2,0,54.5,0c0,3.2,0,6.5,0,9.9C36.6,150.5,18.5,150.5,0.2,150.5z"/>
	<path class="st0" d="M191.5,150.6c-17.3,0-34.2,0-51.4,0c0-3.4,0-6.6,0-9.9c17,0,34.2,0,51.4,0
		C191.5,144.1,191.5,147.3,191.5,150.6z"/>
	<path class="st0" d="M309,157.5c0,2.2,0,4,0,5.8c-0.6,0.8-1.5,0.6-2.2,0.6c-22.9,0-45.8,0-68.7,0c-2,0-4.3-2-5.2-4.2
		c-0.3-0.7-0.5-1.4-0.8-2.2C257.8,157.5,283.3,157.5,309,157.5z"/>
	<path class="st0" d="M308.9,173.5c0.3,2.2,0.3,4.2,0,6.2c-2.1,1-3.9,0-5.7,0c-17.3,0-34.5,0-51.7,0c-0.5,0-1.1,0-1.6,0.2
		c-2.3,0.6-4.1,0.5-5-2.1c-0.5-1.4-1.8-2.4-2.3-4.2C264.9,173.5,286.8,173.5,308.9,173.5z"/>
	<path class="st0" d="M139.8,163.6c-0.3-2.1,0.4-4.4-0.5-6.5c1.3,0.1,2.5,0.2,3.7,0.2c15.2,0,30.4,0,45.7,0c0.8,0,1.6,0,2.5,0
		c0,2.2,0,4.3,0,6.3c-0.7,0.5-1.4,0.3-2.1,0.3c-15.8,0-31.6,0-47.3,0C141.1,163.9,140.4,164.1,139.8,163.6z"/>
	<path class="st0" d="M437.7,179.5c0.8-2.4-1.7-3.9-0.6-6.1c18.1,0,36.4,0,54.6,0c0.9,2,2.1,3.9,2.2,6.1
		C475.3,179.5,456.7,179.5,437.7,179.5z"/>
	<path class="st0" d="M370,173.5c-0.4,1.7-0.6,3.2-1,4.7c-0.3,0.9-0.8,1.5-2.1,1.5c-16.4-0.1-32.9-0.1-49.3-0.2
		c-1.1,0-2.5,1.5-3.6-0.4c1.7-1.5,0.4-4.5,2.7-5.6C334.4,173.5,352.1,173.5,370,173.5z"/>
	<path class="st0" d="M497.9,189.5c0.7,1.8,1.8,3.5,1.9,5.6c-18.8,0-37.6,0-56.6,0c-0.2-1.9-1.2-3.5-1.2-5.6
		C460.6,189.5,479.2,189.5,497.9,189.5z"/>
	<path class="st0" d="M139.8,195c0.1-1.8,0.2-3.6,0.3-5.4c0.5-0.1,1.1-0.2,1.6-0.2c15.9,0,31.8,0,47.8,0c0.6,0,1.2,0.1,1.9,0.1
		c0,1.9,0,3.7,0,5.3c-0.5,0.5-1,0.4-1.4,0.4c-16.1,0-32.3,0-48.4,0C140.9,195.2,140.3,195.1,139.8,195z"/>
	<path class="st0" d="M140,179.2c0-1.9,0.1-3.8,0.1-5.7c0.9-0.1,1.9-0.2,2.8-0.2c15.3,0,30.6,0,45.9,0c0.8,0,1.6,0,2.4,0
		c0.4,2.1,0.2,4,0.2,5.9c-0.6,0.6-1.2,0.4-1.8,0.4c-15.9,0-31.7,0-47.5,0C141.3,179.6,140.5,179.8,140,179.2z"/>
</g>
</svg>
